Patient4_TMGait_0pt4_03_right_41_EMG.mot
version=1
nRows=26
nColumns=33
inDegrees=no
endheader
time	1LAddLong	2LGlutMax	3LGlutMed	4LIliopsoas	5LSemiMemb	6LBicFemLong	7LRecFem	8LVastMed	9LVastLat	10LGasMed	11LTibAnt	12lTibPost	13LPeroneusLong	14LSol	15LExtDigLong	16LFlexDigLong	17RAddLong	18RGlutMax	19RGlutMed	20RIliopsoas	21RSemiMemb	22RBicFemLong	23RRecFem	24RVastMed	25RVastLat	26RGasMed	27RTibAnt	28RTibPost	29RPeroneusLong	30RSol	31RExtDigLong	32RFlexDigLong
55.055	0.012512	-0.081787	0.12161	0.001068	0.038147	-0.012817	0.06012	-0.003662	-0.001526	0.40619	0.008392	-0.008087	0.007629	-0.68771	-0.018616	0.10498	0.002899	-0.005493	0.036316	0.013275	-0.29037	0.19562	0.00412	0.029449	0.001221	0.006104	0.16144	-0.009613	0.0177	-0.012054	-0.00412	0.007172
55.056	0.010071	-0.056152	0.14984	0.009308	0.011902	0.02182	0.058136	0.002289	-0.006104	0.25711	0.009155	0.012665	-0.005341	-0.55527	-0.001221	0.050354	-0.038605	0.028534	-0.33005	0.031891	-0.18204	0.21835	-0.014801	0.020294	0.010834	0.00412	0.51254	-0.00061	0.006256	-0.009918	-0.001526	0.008698
55.057	0.005646	-0.059662	0.14496	0.004425	0.007019	0.040894	0.056152	-0.000458	-0.002136	-0.27939	-0.006561	-0.11597	0.005341	-0.10284	-0.006409	-0.025482	-0.056305	-0.009155	-1.0297	0.033722	0.16769	0.2124	0.020447	0.063477	0.011749	0.000916	0.40863	0	-0.064087	0.002747	-0.013123	0.008545
55.058	0.007019	-0.060577	0.074615	0.011139	-0.009918	0.058899	0.034943	0.000916	-0.005341	-0.68695	-0.000916	0.20355	0.12085	0.068359	-0.015869	-0.020142	-0.046692	0.02182	-0.66956	-0.026398	0.25116	0.30716	0.029755	0.076904	-0.012207	0.001526	0.11215	-0.005798	-0.087738	-0.010834	-0.008087	0.015564
55.059	0.015259	-0.055542	0.007629	0.002136	-0.014496	0.023956	0.050964	0.007477	-0.005951	-0.383	-0.007019	0.068512	0.0737	0.17822	0.006256	0.002747	-0.027161	0.002594	-0.026245	-0.021973	0.14679	0.35675	0.044861	0.028534	-0.007324	0.007477	-0.013885	-0.001068	-0.067749	-0.027466	-0.004578	0.014954
55.06	0.000916	-0.063782	0.032959	0.000763	-0.039368	-0.007782	0.049591	0.007935	-0.021515	-0.28473	0.009308	-0.052032	-0.061035	0.41336	0.005798	-0.009308	-0.013275	-0.038605	0.65964	-0.03067	0.103	0.41061	0.067749	-0.016479	0.002441	0.002899	-0.18982	-0.000458	-0.11383	-0.049744	-0.010529	0.025177
55.061	0.008545	-0.050964	0.086975	-0.006714	0.006561	-0.014038	0.039673	0.011444	-0.030823	-0.42847	0.014801	0.016022	-0.02594	0.33463	0.010681	-0.00473	-0.010071	-0.088654	0.49911	0.06012	0.065002	0.42145	0.028381	0.012665	0.000458	-0.001984	-0.18005	-0.000916	-0.1622	-0.048065	-0.009766	0.039673
55.062	0.014038	-0.068207	0.15778	0.000153	0.016937	-0.019073	0.06134	0.003204	-0.007019	-0.47653	0.00946	-0.036469	0.041962	0.14175	0.000153	-0.015564	-0.011139	-0.15305	0.28061	0.13504	0.042419	0.4631	0.052338	-0.005798	0.014191	-0.002899	-0.071106	-0.005341	-0.027161	-0.04425	-0.004883	0.046997
55.063	0.020752	-0.057831	0.015106	0.033264	0.031738	-0.009308	0.052948	0.002289	0.009155	-0.24994	0.011444	-0.047913	0.085754	0.11154	-0.014343	-0.008392	0.011292	-0.1149	-0.074463	-0.024261	0.04303	0.46478	0.018005	-0.047455	0.021362	-0.002136	0.15106	-0.002747	0.046234	-0.041351	-0.006104	0.040283
55.064	0.01236	-0.028229	-0.017395	-0.009766	0.018921	0.009308	0.050201	0.000305	0.029297	-0.061798	0.001984	-0.017853	0.12787	-0.22522	0.007324	-0.010223	0.002594	-0.088196	0.19684	-0.13397	0.045624	0.49149	0.027466	-0.013885	0.019226	-0.000458	0.30487	-0.006561	0.029755	-0.084686	-0.010376	0.053711
55.065	0.008698	-0.02594	0.010681	0.013123	0.011597	0.011292	0.030823	0.00885	0.013428	-0.055847	-0.003967	-0.019836	0.16205	-0.075836	0.010071	0.011749	0.011902	-0.049286	-0.013275	-0.032654	0.057068	0.52826	0.002289	-0.047455	0.019073	0.001221	0.37674	-0.003357	-0.037842	0.024872	-0.013733	0.059662
55.066	0.010529	-0.032043	0.036011	-0.005646	0.012512	0.001678	-0.001984	-0.001068	0.029297	-0.037537	-0.003357	-0.008698	0.027466	0.1648	0.010681	0.036316	0.006104	-0.041046	-0.17258	0.011292	0.010376	0.62012	0.002289	-0.029907	0.017242	0.003052	0.41077	-0.003357	0.03891	0.007782	-0.006104	0.067749
55.067	0.008698	-0.022125	0.040588	-0.007172	0.020905	0.012512	0.030518	-0.009766	0.018616	0.01297	-0.01358	-0.003204	0.036621	0.33707	0.037231	0.023499	0.015564	-0.027161	-0.23514	-0.009918	-0.061035	0.74219	-0.007629	0.018616	0.022278	0.005188	-0.002594	-0.002289	0.33035	-0.015411	-0.00885	0.06958
55.068	0.009308	0.001678	0.088501	0.000763	0.019226	0.004883	0.032959	-0.003204	0.010376	0.030365	-0.006256	-0.003967	0.19714	0.047607	0.007935	0.019379	0.006866	-0.081787	-0.42648	0.027771	0.004425	0.79437	-0.001221	0.000305	0.025635	0.007477	-0.26154	-0.010681	0.36072	0	-0.015259	0.090027
55.069	0.006104	0.010223	0.10635	0	0.010681	0.00885	0.028992	-0.003662	0.014496	0.059967	0.011139	-0.006714	-0.028687	0.023651	-0.004578	-0.024414	0.010986	-0.023499	-0.36118	-0.015106	0.010986	0.80078	-0.022583	0.019379	0.033264	0.003662	-0.28564	-0.006714	0.2829	-0.004578	-0.015259	0.09964
55.07	0.007019	-0.019226	0.045929	0.011597	0.011444	-0.01236	0.016022	-0.010223	0.028229	-0.034637	0.011292	-0.006409	-0.29587	-0.053406	-0.015564	-0.019684	0.005035	-0.014496	0.028229	0.12787	-0.030518	0.81451	-0.029144	0.025482	0.028839	-0.001221	-0.20721	-0.005951	-0.2269	-0.023956	-0.013733	0.1239
55.071	0.006104	-0.030518	-0.013123	0.020142	-0.002136	-0.02533	0.024109	0.002747	0.015564	-0.058136	0.013885	-0.016327	-0.12238	-0.22003	-0.07782	-0.005493	-0.000916	-0.03891	-0.79559	0.24078	-0.034027	0.80948	-0.018005	0.006866	0.019379	0.001526	-0.050964	-0.010223	-0.59097	-0.00824	-0.009003	0.14877
55.072	0.00473	0.006409	0.066071	0.006104	0.016022	-0.028839	0.047607	0.00061	0.014038	-0.075531	0.007019	-0.003052	0.13763	-0.14923	-0.014496	0.006409	0.009308	-0.004272	-0.93887	0.14252	-0.014648	0.84122	0.007477	0	0.016022	-0.013275	0.007629	-0.006256	-0.3746	-0.003662	-0.018768	0.18723
55.073	0.013275	-0.014038	0.080109	-0.013885	0.011597	0.002899	0.029755	-0.004883	0.005035	-0.072021	0.00061	-0.005646	0.091095	-0.066376	-0.000153	0.003052	0.007782	-0.033722	-0.45822	0.000916	-0.045624	0.84427	-0.002289	-0.002289	0.009918	-0.011597	0.057678	-0.00473	-0.18158	-0.030365	-0.013885	0.23956
55.074	0.007629	-0.059052	-0.008087	0.00351	0.013428	0.023804	0.023956	0.000458	0.006409	-0.050354	0.005035	-0.005951	0.065613	0.034332	0.007477	0.00885	0.019226	-0.051117	0.32196	-0.11734	0.071411	0.78583	0.008698	0.018768	0.015564	-0.01709	0.075531	-0.001373	0.60944	-0.016022	-0.013428	0.37674
55.075	0.008545	-0.03891	0.009155	-0.012665	0.00351	0.00946	0.017242	-0.00412	0.010681	-0.036926	0.005188	-0.002441	0.14374	0.043182	-0.018921	-0.006256	0.018768	-0.099487	0.7309	-0.1384	0.10284	0.73898	-0.022583	0.037384	0.027924	-0.026093	0.075531	-0.004883	0.23377	0.010681	-0.01709	-0.034637
55.076	0.006866	-0.019531	0.034332	0.012207	-0.00061	0.002289	0.041656	0.007782	0.016022	-0.046692	-0.002747	0.005646	0.055542	0.1297	-0.001373	0.005951	0.016937	-0.13153	0.75043	-0.061493	0.12085	0.67352	-0.002289	0.022888	0.030518	-0.021515	0.071869	-0.005493	-0.24139	0.044098	-0.017853	-0.19836
55.077	0.010529	-0.010529	0.038605	0.017395	-0.000305	-0.018463	0.04303	0.003815	0.015717	-0.021515	0.007477	-0.00473	-0.13733	0.007935	-0.005341	0.00061	0.011139	-0.10391	0.30884	-0.008087	-0.06134	0.6987	0.004425	0.014954	0.0354	-0.017548	0.054932	-0.002747	-0.2739	0.013275	-0.018768	-0.22858
55.078	0.0177	-0.025787	-0.023041	0.003662	0.018463	-0.031433	0.034485	0.009308	0.018768	-0.023499	0.001831	-0.012665	0.055847	0.004272	0.001068	-1.2959	0.019836	-0.10971	0.38803	-0.011139	-0.16693	0.62592	0.034027	-0.065918	0.014648	-0.003052	0.060577	-0.007935	-0.17746	0.004425	-0.016632	-0.25009
55.079	0.009613	0.002899	-0.043793	0.003357	0.022278	-0.029297	0.040894	0.000153	0.011902	-0.034943	0.009308	-0.000458	0.081482	-0.010986	0.003052	0.25925	0.037231	-0.064697	0.091553	0.056152	-0.33722	0.67932	0.011292	-0.021515	0.012512	0.000305	0.056	-0.009155	0.086365	0.024872	-0.018921	-0.23972
55.08	0.011597	-0.023041	0.037231	0.021515	0.018158	-0.027313	0.04776	-0.000458	0.015411	0.066223	0.018005	-0.00351	-0.19531	-0.049133	0.016479	0.86411	0.03006	-0.029907	0.2005	0.07019	-0.38361	0.67978	0.004578	0.004425	0.019226	0.008545	0.036926	-0.006409	0.40909	0.037994	-0.018005	-0.26947
